<mxfile host="app.diagrams.net" modified="2024-05-04T22:31:54.887Z" agent="Mozilla/5.0 (Windows NT 10.0; Win64; x64) AppleWebKit/537.36 (KHTML, like Gecko) Chrome/124.0.0.0 Safari/537.36" etag="l1998rkEBNnG1lsXOftK" version="24.3.1" type="device">
  <diagram id="YrfzH3xwVrYN7FTBeiER" name="Page-1">
    <mxGraphModel dx="882" dy="578" grid="1" gridSize="10" guides="1" tooltips="1" connect="1" arrows="1" fold="1" page="1" pageScale="1" pageWidth="850" pageHeight="1100" math="0" shadow="0">
      <root>
        <mxCell id="0" />
        <mxCell id="1" parent="0" />
        <mxCell id="W2C-pqZ3fu2_AHB15Ob1-2" value="Metadata DB" style="rounded=1;whiteSpace=wrap;html=1;" parent="1" vertex="1">
          <mxGeometry x="120" y="480" width="80" height="40" as="geometry" />
        </mxCell>
        <mxCell id="W2C-pqZ3fu2_AHB15Ob1-3" value="Attachment store" style="rounded=1;whiteSpace=wrap;html=1;" parent="1" vertex="1">
          <mxGeometry x="280" y="480" width="80" height="40" as="geometry" />
        </mxCell>
        <mxCell id="W2C-pqZ3fu2_AHB15Ob1-4" value="Distributed cache" style="rounded=1;whiteSpace=wrap;html=1;" parent="1" vertex="1">
          <mxGeometry x="480" y="480" width="80" height="40" as="geometry" />
        </mxCell>
        <mxCell id="W2C-pqZ3fu2_AHB15Ob1-5" value="Search store" style="rounded=1;whiteSpace=wrap;html=1;" parent="1" vertex="1">
          <mxGeometry x="640" y="480" width="80" height="40" as="geometry" />
        </mxCell>
        <mxCell id="W2C-pqZ3fu2_AHB15Ob1-12" value="" style="swimlane;startSize=0;" parent="1" vertex="1">
          <mxGeometry x="80" y="440" width="680" height="120" as="geometry" />
        </mxCell>
        <mxCell id="EYAoF9VQQBNejwMc4ofB-10" style="edgeStyle=orthogonalEdgeStyle;rounded=0;orthogonalLoop=1;jettySize=auto;html=1;exitX=0.5;exitY=1;exitDx=0;exitDy=0;entryX=0.5;entryY=0;entryDx=0;entryDy=0;" parent="1" source="EYAoF9VQQBNejwMc4ofB-1" target="EYAoF9VQQBNejwMc4ofB-2" edge="1">
          <mxGeometry relative="1" as="geometry" />
        </mxCell>
        <mxCell id="EYAoF9VQQBNejwMc4ofB-1" value="Email acceptance policy" style="rounded=1;whiteSpace=wrap;html=1;" parent="1" vertex="1">
          <mxGeometry x="120" y="240" width="80" height="40" as="geometry" />
        </mxCell>
        <mxCell id="8WxYDBLnWtcnO8M_j0uD-5" style="edgeStyle=orthogonalEdgeStyle;rounded=0;orthogonalLoop=1;jettySize=auto;html=1;exitX=1;exitY=0.5;exitDx=0;exitDy=0;entryX=0;entryY=0.5;entryDx=0;entryDy=0;" edge="1" parent="1" source="EYAoF9VQQBNejwMc4ofB-2" target="EYAoF9VQQBNejwMc4ofB-5">
          <mxGeometry relative="1" as="geometry" />
        </mxCell>
        <mxCell id="8WxYDBLnWtcnO8M_j0uD-6" style="edgeStyle=orthogonalEdgeStyle;rounded=0;orthogonalLoop=1;jettySize=auto;html=1;exitX=0.5;exitY=1;exitDx=0;exitDy=0;entryX=0.5;entryY=0;entryDx=0;entryDy=0;" edge="1" parent="1" source="EYAoF9VQQBNejwMc4ofB-2" target="W2C-pqZ3fu2_AHB15Ob1-12">
          <mxGeometry relative="1" as="geometry">
            <Array as="points">
              <mxPoint x="160" y="420" />
              <mxPoint x="420" y="420" />
            </Array>
          </mxGeometry>
        </mxCell>
        <mxCell id="8WxYDBLnWtcnO8M_j0uD-42" style="edgeStyle=orthogonalEdgeStyle;rounded=0;orthogonalLoop=1;jettySize=auto;html=1;exitX=0.5;exitY=0;exitDx=0;exitDy=0;entryX=0.5;entryY=1;entryDx=0;entryDy=0;" edge="1" parent="1" source="EYAoF9VQQBNejwMc4ofB-2" target="EYAoF9VQQBNejwMc4ofB-1">
          <mxGeometry relative="1" as="geometry" />
        </mxCell>
        <mxCell id="EYAoF9VQQBNejwMc4ofB-2" value="SMTP servers" style="rounded=1;whiteSpace=wrap;html=1;" parent="1" vertex="1">
          <mxGeometry x="120" y="320" width="80" height="40" as="geometry" />
        </mxCell>
        <mxCell id="EYAoF9VQQBNejwMc4ofB-19" style="edgeStyle=orthogonalEdgeStyle;rounded=0;orthogonalLoop=1;jettySize=auto;html=1;exitX=1;exitY=0.5;exitDx=0;exitDy=0;entryX=0;entryY=0.5;entryDx=0;entryDy=0;" parent="1" source="EYAoF9VQQBNejwMc4ofB-5" target="EYAoF9VQQBNejwMc4ofB-18" edge="1">
          <mxGeometry relative="1" as="geometry" />
        </mxCell>
        <mxCell id="EYAoF9VQQBNejwMc4ofB-5" value="Outgoing queue" style="rounded=1;whiteSpace=wrap;html=1;" parent="1" vertex="1">
          <mxGeometry x="280" y="320" width="80" height="40" as="geometry" />
        </mxCell>
        <mxCell id="EYAoF9VQQBNejwMc4ofB-26" style="edgeStyle=orthogonalEdgeStyle;rounded=0;orthogonalLoop=1;jettySize=auto;html=1;exitX=0.5;exitY=1;exitDx=0;exitDy=0;" parent="1" source="EYAoF9VQQBNejwMc4ofB-11" edge="1">
          <mxGeometry relative="1" as="geometry">
            <mxPoint x="420" y="440" as="targetPoint" />
          </mxGeometry>
        </mxCell>
        <mxCell id="EYAoF9VQQBNejwMc4ofB-11" value="" style="swimlane;startSize=0;" parent="1" vertex="1">
          <mxGeometry x="440" y="110" width="160" height="290" as="geometry" />
        </mxCell>
        <mxCell id="EYAoF9VQQBNejwMc4ofB-13" value="Check virus" style="rounded=1;whiteSpace=wrap;html=1;" parent="EYAoF9VQQBNejwMc4ofB-11" vertex="1">
          <mxGeometry x="40" y="130" width="80" height="40" as="geometry" />
        </mxCell>
        <mxCell id="EYAoF9VQQBNejwMc4ofB-14" value="Check spam" style="rounded=1;whiteSpace=wrap;html=1;" parent="EYAoF9VQQBNejwMc4ofB-11" vertex="1">
          <mxGeometry x="40" y="50" width="80" height="40" as="geometry" />
        </mxCell>
        <mxCell id="8WxYDBLnWtcnO8M_j0uD-1" style="edgeStyle=orthogonalEdgeStyle;rounded=0;orthogonalLoop=1;jettySize=auto;html=1;exitX=0.25;exitY=0;exitDx=0;exitDy=0;entryX=0;entryY=0.5;entryDx=0;entryDy=0;" edge="1" parent="EYAoF9VQQBNejwMc4ofB-11" source="EYAoF9VQQBNejwMc4ofB-18" target="EYAoF9VQQBNejwMc4ofB-13">
          <mxGeometry relative="1" as="geometry" />
        </mxCell>
        <mxCell id="8WxYDBLnWtcnO8M_j0uD-3" style="edgeStyle=orthogonalEdgeStyle;rounded=0;orthogonalLoop=1;jettySize=auto;html=1;exitX=0.75;exitY=0;exitDx=0;exitDy=0;entryX=1;entryY=0.5;entryDx=0;entryDy=0;" edge="1" parent="EYAoF9VQQBNejwMc4ofB-11" source="EYAoF9VQQBNejwMc4ofB-18" target="EYAoF9VQQBNejwMc4ofB-14">
          <mxGeometry relative="1" as="geometry">
            <Array as="points">
              <mxPoint x="100" y="190" />
              <mxPoint x="140" y="190" />
              <mxPoint x="140" y="70" />
            </Array>
          </mxGeometry>
        </mxCell>
        <mxCell id="EYAoF9VQQBNejwMc4ofB-18" value="Mail processing" style="rounded=1;whiteSpace=wrap;html=1;" parent="EYAoF9VQQBNejwMc4ofB-11" vertex="1">
          <mxGeometry x="40" y="210" width="80" height="40" as="geometry" />
        </mxCell>
        <mxCell id="EYAoF9VQQBNejwMc4ofB-15" value="Real-time servers" style="rounded=1;whiteSpace=wrap;html=1;" parent="1" vertex="1">
          <mxGeometry x="640" y="320" width="80" height="40" as="geometry" />
        </mxCell>
        <mxCell id="EYAoF9VQQBNejwMc4ofB-20" style="edgeStyle=orthogonalEdgeStyle;rounded=0;orthogonalLoop=1;jettySize=auto;html=1;exitX=1;exitY=0.5;exitDx=0;exitDy=0;" parent="1" source="EYAoF9VQQBNejwMc4ofB-18" target="EYAoF9VQQBNejwMc4ofB-15" edge="1">
          <mxGeometry relative="1" as="geometry" />
        </mxCell>
        <mxCell id="8WxYDBLnWtcnO8M_j0uD-4" value="" style="swimlane;startSize=0;" vertex="1" parent="1">
          <mxGeometry x="80" y="200" width="160" height="200" as="geometry" />
        </mxCell>
        <mxCell id="8WxYDBLnWtcnO8M_j0uD-41" style="edgeStyle=orthogonalEdgeStyle;rounded=0;orthogonalLoop=1;jettySize=auto;html=1;exitX=0.5;exitY=1;exitDx=0;exitDy=0;entryX=0;entryY=0.5;entryDx=0;entryDy=0;" edge="1" parent="1" source="8WxYDBLnWtcnO8M_j0uD-36" target="EYAoF9VQQBNejwMc4ofB-2">
          <mxGeometry relative="1" as="geometry">
            <Array as="points">
              <mxPoint x="160" y="220" />
              <mxPoint x="100" y="220" />
              <mxPoint x="100" y="340" />
            </Array>
          </mxGeometry>
        </mxCell>
        <mxCell id="8WxYDBLnWtcnO8M_j0uD-36" value="Load balancer" style="rounded=1;whiteSpace=wrap;html=1;" vertex="1" parent="1">
          <mxGeometry x="120" y="120" width="80" height="40" as="geometry" />
        </mxCell>
        <mxCell id="8WxYDBLnWtcnO8M_j0uD-40" style="edgeStyle=orthogonalEdgeStyle;rounded=0;orthogonalLoop=1;jettySize=auto;html=1;exitX=0.5;exitY=1;exitDx=0;exitDy=0;entryX=0.5;entryY=0;entryDx=0;entryDy=0;" edge="1" parent="1" source="8WxYDBLnWtcnO8M_j0uD-37" target="8WxYDBLnWtcnO8M_j0uD-36">
          <mxGeometry relative="1" as="geometry" />
        </mxCell>
        <mxCell id="8WxYDBLnWtcnO8M_j0uD-37" value="Email" style="rounded=1;whiteSpace=wrap;html=1;" vertex="1" parent="1">
          <mxGeometry x="120" y="40" width="80" height="40" as="geometry" />
        </mxCell>
        <mxCell id="8WxYDBLnWtcnO8M_j0uD-47" style="edgeStyle=orthogonalEdgeStyle;rounded=0;orthogonalLoop=1;jettySize=auto;html=1;exitX=0.5;exitY=1;exitDx=0;exitDy=0;entryX=0.5;entryY=0;entryDx=0;entryDy=0;" edge="1" parent="1" source="8WxYDBLnWtcnO8M_j0uD-38" target="W2C-pqZ3fu2_AHB15Ob1-12">
          <mxGeometry relative="1" as="geometry">
            <Array as="points">
              <mxPoint x="800" y="420" />
              <mxPoint x="420" y="420" />
            </Array>
          </mxGeometry>
        </mxCell>
        <mxCell id="8WxYDBLnWtcnO8M_j0uD-38" value="Web servers" style="rounded=1;whiteSpace=wrap;html=1;" vertex="1" parent="1">
          <mxGeometry x="760" y="320" width="80" height="40" as="geometry" />
        </mxCell>
        <mxCell id="8WxYDBLnWtcnO8M_j0uD-43" style="edgeStyle=orthogonalEdgeStyle;rounded=0;orthogonalLoop=1;jettySize=auto;html=1;exitX=0;exitY=0.5;exitDx=0;exitDy=0;" edge="1" parent="1" source="8WxYDBLnWtcnO8M_j0uD-39" target="EYAoF9VQQBNejwMc4ofB-15">
          <mxGeometry relative="1" as="geometry" />
        </mxCell>
        <mxCell id="8WxYDBLnWtcnO8M_j0uD-39" value="Webmail" style="rounded=1;whiteSpace=wrap;html=1;" vertex="1" parent="1">
          <mxGeometry x="710" y="200" width="80" height="40" as="geometry" />
        </mxCell>
        <mxCell id="8WxYDBLnWtcnO8M_j0uD-44" style="edgeStyle=orthogonalEdgeStyle;rounded=0;orthogonalLoop=1;jettySize=auto;html=1;exitX=1;exitY=0.5;exitDx=0;exitDy=0;entryX=0.619;entryY=-0.025;entryDx=0;entryDy=0;entryPerimeter=0;" edge="1" parent="1" source="8WxYDBLnWtcnO8M_j0uD-39" target="8WxYDBLnWtcnO8M_j0uD-38">
          <mxGeometry relative="1" as="geometry" />
        </mxCell>
        <mxCell id="8WxYDBLnWtcnO8M_j0uD-45" value="WebSocket" style="text;html=1;align=center;verticalAlign=middle;whiteSpace=wrap;rounded=0;" vertex="1" parent="1">
          <mxGeometry x="600" y="240" width="80" height="40" as="geometry" />
        </mxCell>
        <mxCell id="8WxYDBLnWtcnO8M_j0uD-46" value="HTTPS" style="text;html=1;align=center;verticalAlign=middle;whiteSpace=wrap;rounded=0;" vertex="1" parent="1">
          <mxGeometry x="720" y="240" width="80" height="40" as="geometry" />
        </mxCell>
      </root>
    </mxGraphModel>
  </diagram>
</mxfile>
